<svg xmlns="http://www.w3.org/2000/svg" viewBox="0 0 512 512">
  <!-- Next-gen gradient background -->
  <defs>
    <linearGradient id="bg" x1="0%" y1="0%" x2="100%" y2="100%">
      <stop offset="0%" stop-color="#FF4B4B" />
      <stop offset="100%" stop-color="#990000" />
    </linearGradient>
    <filter id="shadow" x="-20%" y="-20%" width="140%" height="140%">
      <feDropShadow dx="3" dy="10" stdDeviation="15" flood-color="#000000" flood-opacity="0.4"/>
    </filter>
  </defs>
  
  <rect width="512" height="512" rx="112" fill="url(#bg)" />

  <g filter="url(#shadow)" transform="translate(106, 106) scale(1.17)">
    <!-- Main Scissors shape -->
    <path fill="#ffffff" d="M228.1 133.5c-3-11.4-16.7-14.7-24.5-5.9l-58.8 66c-4.9 5.5-12.7 7.7-19.8 5.7L82.2 187c-11.4-3.2-22.3 5.4-21 17.2l4.8 42.6c.9 8.2-2.1 16.3-8.2 21.8l-40.4 36.4c-8.5 7.7-6.5 21.6 4.1 26.6l57.9 27.2c6.9 3.2 15.2 2 20.9-3.1l48.2-43.2c5.6-5.1 8.7-12.5 8.3-20.1l-2.4-42.8c-.5-8.2 3.6-15.8 10.6-20l62.4-37.4c9.9-5.9 10.7-20.2 1.5-25.1l-22.4-12.5-38.4-40.7z"/>
    
    <!-- Top blade -->
    <path fill="#f0f0f0" d="M193.3 53.6L53 193.9c-8.6 8.6-8.6 22.5 0 31.1l20.4 20.4c8.6 8.6 22.5 8.6 31.1 0L244.8 105c8.6-8.6 8.6-22.5 0-31.1l-20.4-20.4c-8.6-8.5-22.5-8.5-31.1.1z"/>
    <!-- Bottom blade -->
    <path fill="#e0e0e0" d="M53 105l140.3 140.3c8.6 8.6 22.5 8.6 31.1 0l20.4-20.4c8.6-8.6 8.6-22.5 0-31.1L104.5 53.5C96 45 82.1 45 73.5 53.6l-20.5 20.4c-8.6 8.6-8.6 22.5 0 31z"/>
    
    <!-- Scissor Handles (modern circular with glowing rims) -->
    <circle cx="100" cy="205" r="30" fill="none" stroke="#ffffff" stroke-width="20"/>
    <circle cx="205" cy="100" r="30" fill="none" stroke="#ffffff" stroke-width="20"/>
    
    <!-- Pivot Screw -->
    <circle cx="152.5" cy="152.5" r="10" fill="#444444"/>
    <circle cx="152.5" cy="152.5" r="4" fill="#a0a0a0"/>
  </g>
</svg>
